# xmcd CD database file
#
# Track frame offsets:
#	187
#	4432
#	22177
#	31005
#	45627
#	62782
#	68075
#	83050
#	85610
#	105637
#	117892
#	132252
#	147277
#	150427
#	163815
#
# Disc length: 2404 seconds
#
# Revision: 3
# Processed by: cddbd v1.5.2PL0 Copyright (c) Steve Scherf et al.
# Submitted via: CDex 1.40Release
#
DISCID=bd09620f
DTITLE=Keith Whitley - Kentucky Bluebird
DYEAR=1991
DGENRE=Country
TTITLE0=The Buddy Starcher Show
TTITLE1=Going Home
TTITLE2=Lucky Dog
TTITLE3=That's Where I Want To Take Our Love
TTITLE4=Somebody's Doin' Me Right
TTITLE5=Lonesome Mountain Boy's Radio Show (Interview)
TTITLE6=Brotherly Love (Duet With Earl Thomas Conley)
TTITLE7=American Country Countdown Interview
TTITLE8=I Never Go Around Mirrors
TTITLE9=Backbone Job
TTITLE10=Would These Arms Be In Your Way
TTITLE11=Between An Old Memory And Me
TTITLE12=Ralph Emery Interview
TTITLE13=I Want My Rib Back
TTITLE14=Kentucky Bluebird
EXTD=YEAR: 1991 ID3G: 2
EXTT0=Charleston
EXTT1=T Seals - J Schneider
EXTT2=V Thompson - B Caswell
EXTT3=H Cochran - D Dillon
EXTT4=J F Knobloch - P Overstreet - D Tyler
EXTT5=American Country
EXTT6=J Stewart - T Nichols
EXTT7=American Country
EXTT8=S D Shafer - L Frizzell
EXTT9=K Whitley - K Brooks
EXTT10=H Cochran - V Gosdin - R Lane
EXTT11=C Craig - K Stegall
EXTT12=K and L Flatt
EXTT13=K Whitley - F Koller
EXTT14=D Cook - W Wilson
PLAYORDER=
